<?xml version="1.0" encoding="utf-8"?>
<svg viewBox="0 0 300 300" width="15px" height="15px" xmlns="http://www.w3.org/2000/svg">
  <rect width="20.1" height="20" style="fill: rgb(255, 0, 0); stroke-miterlimit: 1; stroke: rgb(255, 0, 0);" transform="matrix(0.9999999999999999, 0, 0, 0.9999999999999999, 0, -2.842170943040401e-14)"/>
  <rect x="20" width="20" height="20" style="fill: rgb(255, 0, 0); stroke-miterlimit: 1; stroke: rgb(255, 0, 0);" transform="matrix(0.9999999999999999, 0, 0, 0.9999999999999999, 0, -2.842170943040401e-14)"/>
  <rect width="20" height="20" style="fill: rgb(255, 0, 0); stroke-miterlimit: 1; stroke: rgb(255, 0, 0);" x="40" transform="matrix(0.9999999999999999, 0, 0, 0.9999999999999999, 0, -2.842170943040401e-14)"/>
  <rect x="60" width="20" height="20" style="fill: rgb(255, 0, 0); stroke-miterlimit: 1; stroke: rgb(255, 0, 0);" transform="matrix(0.9999999999999999, 0, 0, 0.9999999999999999, 0, -2.842170943040401e-14)"/>
  <rect width="20.1" height="20" style="fill: rgb(255, 0, 0); stroke-miterlimit: 1; stroke: rgb(255, 0, 0);" y="20" transform="matrix(0.9999999999999999, 0, 0, 0.9999999999999999, 0, -2.842170943040401e-14)"/>
  <rect x="20" width="20" height="20" style="fill: rgb(255, 0, 0); stroke-miterlimit: 1; stroke: rgb(255, 0, 0);" y="20" transform="matrix(0.9999999999999999, 0, 0, 0.9999999999999999, 0, -2.842170943040401e-14)"/>
  <rect width="20" height="20" style="fill: rgb(255, 0, 0); stroke-miterlimit: 1; stroke: rgb(255, 0, 0);" x="40" y="20" transform="matrix(0.9999999999999999, 0, 0, 0.9999999999999999, 0, -2.842170943040401e-14)"/>
  <rect x="60" width="20" height="20" style="fill: rgb(255, 0, 0); stroke-miterlimit: 1; stroke: rgb(255, 0, 0);" y="20" transform="matrix(0.9999999999999999, 0, 0, 0.9999999999999999, 0, -2.842170943040401e-14)"/>
  <rect width="20.1" height="20" style="fill: rgb(255, 0, 0); stroke-miterlimit: 1; stroke: rgb(255, 0, 0);" y="40" transform="matrix(0.9999999999999999, 0, 0, 0.9999999999999999, 0, -2.842170943040401e-14)"/>
  <rect x="20" width="20" height="20" style="fill: rgb(255, 0, 0); stroke-miterlimit: 1; stroke: rgb(255, 0, 0);" y="40" transform="matrix(0.9999999999999999, 0, 0, 0.9999999999999999, 0, -2.842170943040401e-14)"/>
  <rect width="20" height="20" style="fill: rgb(255, 0, 0); stroke-miterlimit: 1; stroke: rgb(255, 0, 0);" x="40" y="40" transform="matrix(0.9999999999999999, 0, 0, 0.9999999999999999, 0, -2.842170943040401e-14)"/>
  <rect x="60" width="20" height="20" style="fill: rgb(255, 0, 0); stroke-miterlimit: 1; stroke: rgb(255, 0, 0);" y="40" transform="matrix(0.9999999999999999, 0, 0, 0.9999999999999999, 0, -2.842170943040401e-14)"/>
  <rect width="20.1" height="20" style="fill: rgb(255, 0, 0); stroke-miterlimit: 1; stroke: rgb(255, 0, 0);" y="60" transform="matrix(0.9999999999999999, 0, 0, 0.9999999999999999, 0, -2.842170943040401e-14)"/>
  <rect x="20" width="20" height="20" style="fill: rgb(255, 0, 0); stroke-miterlimit: 1; stroke: rgb(255, 0, 0);" y="60" transform="matrix(0.9999999999999999, 0, 0, 0.9999999999999999, 0, -2.842170943040401e-14)"/>
  <rect width="20" height="20" style="fill: rgb(255, 0, 0); stroke-miterlimit: 1; stroke: rgb(255, 0, 0);" x="40" y="60" transform="matrix(0.9999999999999999, 0, 0, 0.9999999999999999, 0, -2.842170943040401e-14)"/>
  <rect x="60" width="20" height="20" style="stroke-miterlimit: 1; stroke: rgb(0, 0, 0);" y="60" transform="matrix(0.9999999999999999, 0, 0, 0.9999999999999999, 0, -2.842170943040401e-14)"/>
  <rect width="20" height="20" style="fill: rgb(255, 0, 0); stroke-miterlimit: 1; stroke: rgb(255, 0, 0);" x="80" transform="matrix(0.9999999999999999, 0, 0, 0.9999999999999999, 0, -2.842170943040401e-14)"/>
  <rect x="100" width="20" height="20" style="fill: rgb(255, 0, 0); stroke-miterlimit: 1; stroke: rgb(255, 0, 0);" transform="matrix(0.9999999999999999, 0, 0, 0.9999999999999999, 0, -2.842170943040401e-14)"/>
  <rect width="20" height="20" style="fill: rgb(255, 0, 0); stroke-miterlimit: 1; stroke: rgb(255, 0, 0);" x="120" transform="matrix(0.9999999999999999, 0, 0, 0.9999999999999999, 0, -2.842170943040401e-14)"/>
  <rect x="140" width="20" height="20" style="fill: rgb(255, 0, 0); stroke-miterlimit: 1; stroke: rgb(255, 0, 0);" transform="matrix(0.9999999999999999, 0, 0, 0.9999999999999999, 0, -2.842170943040401e-14)"/>
  <rect width="20" height="20" style="fill: rgb(255, 0, 0); stroke-miterlimit: 1; stroke: rgb(255, 0, 0);" y="20" x="80" transform="matrix(0.9999999999999999, 0, 0, 0.9999999999999999, 0, -2.842170943040401e-14)"/>
  <rect x="100" width="20" height="20" style="fill: rgb(255, 0, 0); stroke-miterlimit: 1; stroke: rgb(255, 0, 0);" y="20" transform="matrix(0.9999999999999999, 0, 0, 0.9999999999999999, 0, -2.842170943040401e-14)"/>
  <rect width="20" height="20" style="fill: rgb(255, 0, 0); stroke-miterlimit: 1; stroke: rgb(255, 0, 0);" x="120" y="20" transform="matrix(0.9999999999999999, 0, 0, 0.9999999999999999, 0, -2.842170943040401e-14)"/>
  <rect x="140" width="20" height="20" style="stroke-miterlimit: 1; stroke: rgb(0, 0, 0);" y="20" transform="matrix(0.9999999999999999, 0, 0, 0.9999999999999999, 0, -2.842170943040401e-14)"/>
  <rect width="20" height="20" style="fill: rgb(255, 0, 0); stroke-miterlimit: 1; stroke: rgb(255, 0, 0);" y="40" x="80" transform="matrix(0.9999999999999999, 0, 0, 0.9999999999999999, 0, -2.842170943040401e-14)"/>
  <rect x="100" width="20" height="20" style="fill: rgb(255, 0, 0); stroke-miterlimit: 1; stroke: rgb(255, 0, 0);" y="40" transform="matrix(0.9999999999999999, 0, 0, 0.9999999999999999, 0, -2.842170943040401e-14)"/>
  <rect width="20" height="20" style="fill: rgb(255, 0, 0); stroke-miterlimit: 1; stroke: rgb(255, 0, 0);" x="120" y="40" transform="matrix(0.9999999999999999, 0, 0, 0.9999999999999999, 0, -2.842170943040401e-14)"/>
  <rect x="140" width="20" height="20" style="stroke-miterlimit: 1; stroke: rgb(0, 0, 0);" y="40" transform="matrix(0.9999999999999999, 0, 0, 0.9999999999999999, 0, -2.842170943040401e-14)"/>
  <rect width="20" height="20" style="fill: rgb(255, 0, 0); stroke-miterlimit: 1; stroke: rgb(255, 0, 0);" y="60" x="80" transform="matrix(0.9999999999999999, 0, 0, 0.9999999999999999, 0, -2.842170943040401e-14)"/>
  <rect x="100" width="20" height="20" style="stroke-miterlimit: 1; stroke: rgb(0, 0, 0);" y="60" transform="matrix(0.9999999999999999, 0, 0, 0.9999999999999999, 0, -2.842170943040401e-14)"/>
  <rect width="20" height="20" style="stroke-miterlimit: 1; stroke: rgb(0, 0, 0);" x="120" y="60" transform="matrix(0.9999999999999999, 0, 0, 0.9999999999999999, 0, -2.842170943040401e-14)"/>
  <rect x="140" width="20" height="20" style="stroke-miterlimit: 1; stroke: rgb(0, 0, 0);" y="60" transform="matrix(0.9999999999999999, 0, 0, 0.9999999999999999, 0, -2.842170943040401e-14)"/>
  <rect width="20" height="20" style="fill: rgb(255, 0, 0); stroke-miterlimit: 1; stroke: rgb(255, 0, 0);" x="160" transform="matrix(0.9999999999999999, 0, 0, 0.9999999999999999, 0, -2.842170943040401e-14)"/>
  <rect x="180" width="20" height="20" style="fill: rgb(255, 0, 0); stroke-miterlimit: 1; stroke: rgb(255, 0, 0);" transform="matrix(0.9999999999999999, 0, 0, 0.9999999999999999, 0, -2.842170943040401e-14)"/>
  <rect width="20" height="20" style="fill: rgb(255, 0, 0); stroke-miterlimit: 1; stroke: rgb(255, 0, 0);" x="200" transform="matrix(0.9999999999999999, 0, 0, 0.9999999999999999, 0, -2.842170943040401e-14)"/>
  <rect x="220" width="20" height="20" style="fill: rgb(255, 0, 0); stroke-miterlimit: 1; stroke: rgb(255, 0, 0);" transform="matrix(0.9999999999999999, 0, 0, 0.9999999999999999, 0, -2.842170943040401e-14)"/>
  <rect width="20" height="20" style="fill: rgb(255, 0, 0); stroke-miterlimit: 1; stroke: rgb(255, 0, 0);" y="20" x="160" transform="matrix(0.9999999999999999, 0, 0, 0.9999999999999999, 0, -2.842170943040401e-14)"/>
  <rect x="180" width="20" height="20" style="fill: rgb(255, 0, 0); stroke-miterlimit: 1; stroke: rgb(255, 0, 0);" y="20" transform="matrix(0.9999999999999999, 0, 0, 0.9999999999999999, 0, -2.842170943040401e-14)"/>
  <rect width="20" height="20" style="fill: rgb(255, 0, 0); stroke-miterlimit: 1; stroke: rgb(255, 0, 0);" x="200" y="20" transform="matrix(0.9999999999999999, 0, 0, 0.9999999999999999, 0, -2.842170943040401e-14)"/>
  <rect x="220" width="20" height="20" style="fill: rgb(255, 0, 0); stroke-miterlimit: 1; stroke: rgb(255, 0, 0);" y="20" transform="matrix(0.9999999999999999, 0, 0, 0.9999999999999999, 0, -2.842170943040401e-14)"/>
  <rect width="20" height="20" style="fill: rgb(255, 0, 0); stroke-miterlimit: 1; stroke: rgb(255, 0, 0);" y="40" x="160" transform="matrix(0.9999999999999999, 0, 0, 0.9999999999999999, 0, -2.842170943040401e-14)"/>
  <rect x="180" width="20" height="20" style="fill: rgb(255, 0, 0); stroke-miterlimit: 1; stroke: rgb(255, 0, 0);" y="40" transform="matrix(0.9999999999999999, 0, 0, 0.9999999999999999, 0, -2.842170943040401e-14)"/>
  <rect width="20" height="20" style="fill: rgb(255, 0, 0); stroke-miterlimit: 1; stroke: rgb(255, 0, 0);" x="200" y="40" transform="matrix(0.9999999999999999, 0, 0, 0.9999999999999999, 0, -2.842170943040401e-14)"/>
  <rect x="220" width="20" height="20" style="fill: rgb(255, 0, 0); stroke-miterlimit: 1; stroke: rgb(255, 0, 0);" y="40" transform="matrix(0.9999999999999999, 0, 0, 0.9999999999999999, 0, -2.842170943040401e-14)"/>
  <rect width="20" height="20" style="stroke-miterlimit: 1; stroke: rgb(0, 0, 0);" y="60" x="160" transform="matrix(0.9999999999999999, 0, 0, 0.9999999999999999, 0, -2.842170943040401e-14)"/>
  <rect x="180" width="20" height="20" style="stroke-miterlimit: 1; stroke: rgb(0, 0, 0);" y="60" transform="matrix(0.9999999999999999, 0, 0, 0.9999999999999999, 0, -2.842170943040401e-14)"/>
  <rect width="20" height="20" style="fill: rgb(255, 0, 0); stroke-miterlimit: 1; stroke: rgb(255, 0, 0);" x="200" y="60" transform="matrix(0.9999999999999999, 0, 0, 0.9999999999999999, 0, -2.842170943040401e-14)"/>
  <rect x="220" width="20" height="20" style="stroke-miterlimit: 1; stroke: rgb(0, 0, 0);" y="60" transform="matrix(0.9999999999999999, 0, 0, 0.9999999999999999, 0, -2.842170943040401e-14)"/>
  <rect width="20" height="20" style="fill: rgb(255, 0, 0); stroke-miterlimit: 1; stroke: rgb(255, 0, 0);" x="240" transform="matrix(0.9999999999999999, 0, 0, 0.9999999999999999, 0, -2.842170943040401e-14)"/>
  <rect x="260" width="20" height="20" style="fill: rgb(255, 0, 0); stroke-miterlimit: 1; stroke: rgb(255, 0, 0);" transform="matrix(0.9999999999999999, 0, 0, 0.9999999999999999, 0, -2.842170943040401e-14)"/>
  <rect width="20.2" height="20" style="fill: rgb(255, 0, 0); stroke-miterlimit: 1; stroke: rgb(255, 0, 0);" x="280" transform="matrix(0.9999999999999999, 0, 0, 0.9999999999999999, 0, -2.842170943040401e-14)"/>
  <rect width="20" height="20" style="fill: rgb(255, 0, 0); stroke-miterlimit: 1; stroke: rgb(255, 0, 0);" y="20" x="240" transform="matrix(0.9999999999999999, 0, 0, 0.9999999999999999, 0, -2.842170943040401e-14)"/>
  <rect x="260" width="20" height="20" style="fill: rgb(255, 0, 0); stroke-miterlimit: 1; stroke: rgb(255, 0, 0);" y="20" transform="matrix(0.9999999999999999, 0, 0, 0.9999999999999999, 0, -2.842170943040401e-14)"/>
  <rect width="20.2" height="20" style="fill: rgb(255, 0, 0); stroke-miterlimit: 1; stroke: rgb(255, 0, 0);" x="280" y="20" transform="matrix(0.9999999999999999, 0, 0, 0.9999999999999999, 0, -2.842170943040401e-14)"/>
  <rect width="20" height="20" style="fill: rgb(255, 0, 0); stroke-miterlimit: 1; stroke: rgb(255, 0, 0);" y="40" x="240" transform="matrix(0.9999999999999999, 0, 0, 0.9999999999999999, 0, -2.842170943040401e-14)"/>
  <rect x="260" width="20" height="20" style="fill: rgb(255, 0, 0); stroke-miterlimit: 1; stroke: rgb(255, 0, 0);" y="40" transform="matrix(0.9999999999999999, 0, 0, 0.9999999999999999, 0, -2.842170943040401e-14)"/>
  <rect width="20.2" height="20" style="fill: rgb(255, 0, 0); stroke-miterlimit: 1; stroke: rgb(255, 0, 0);" x="280" y="40" transform="matrix(0.9999999999999999, 0, 0, 0.9999999999999999, 0, -2.842170943040401e-14)"/>
  <rect width="20" height="20" style="fill: rgb(255, 0, 0); stroke-miterlimit: 1; stroke: rgb(255, 0, 0);" y="60" x="240" transform="matrix(0.9999999999999999, 0, 0, 0.9999999999999999, 0, -2.842170943040401e-14)"/>
  <rect x="260" width="20" height="20" style="fill: rgb(255, 0, 0); stroke-miterlimit: 1; stroke: rgb(255, 0, 0);" y="60" transform="matrix(0.9999999999999999, 0, 0, 0.9999999999999999, 0, -2.842170943040401e-14)"/>
  <rect width="20.2" height="20" style="fill: rgb(255, 0, 0); stroke-miterlimit: 1; stroke: rgb(255, 0, 0);" x="280" y="60" transform="matrix(0.9999999999999999, 0, 0, 0.9999999999999999, 0, -2.842170943040401e-14)"/>
  <rect width="20.1" height="20" style="fill: rgb(255, 0, 0); stroke-miterlimit: 1; stroke: rgb(255, 0, 0);" y="80" transform="matrix(0.9999999999999999, 0, 0, 0.9999999999999999, 0, -2.842170943040401e-14)"/>
  <rect x="20" width="20" height="20" style="fill: rgb(255, 0, 0); stroke-miterlimit: 1; stroke: rgb(255, 0, 0);" y="80" transform="matrix(0.9999999999999999, 0, 0, 0.9999999999999999, 0, -2.842170943040401e-14)"/>
  <rect width="20" height="20" style="fill: rgb(255, 0, 0); stroke-miterlimit: 1; stroke: rgb(255, 0, 0);" x="40" y="80" transform="matrix(0.9999999999999999, 0, 0, 0.9999999999999999, 0, -2.842170943040401e-14)"/>
  <rect x="60" width="20" height="20" style="fill: rgb(255, 0, 0); stroke-miterlimit: 1; stroke: rgb(255, 0, 0);" y="80" transform="matrix(0.9999999999999999, 0, 0, 0.9999999999999999, 0, -2.842170943040401e-14)"/>
  <rect width="20.1" height="20" style="fill: rgb(255, 0, 0); stroke-miterlimit: 1; stroke: rgb(255, 0, 0);" y="100" transform="matrix(0.9999999999999999, 0, 0, 0.9999999999999999, 0, -2.842170943040401e-14)"/>
  <rect x="20" width="20" height="20" style="fill: rgb(255, 0, 0); stroke-miterlimit: 1; stroke: rgb(255, 0, 0);" y="100" transform="matrix(0.9999999999999999, 0, 0, 0.9999999999999999, 0, -2.842170943040401e-14)"/>
  <rect width="20" height="20" style="fill: rgb(255, 0, 0); stroke-miterlimit: 1; stroke: rgb(255, 0, 0);" x="40" y="100" transform="matrix(0.9999999999999999, 0, 0, 0.9999999999999999, 0, -2.842170943040401e-14)"/>
  <rect x="60" width="20" height="20" style="stroke-miterlimit: 1; stroke: rgb(0, 0, 0);" y="100" transform="matrix(0.9999999999999999, 0, 0, 0.9999999999999999, 0, -2.842170943040401e-14)"/>
  <rect width="20.1" height="20" style="fill: rgb(255, 0, 0); stroke-miterlimit: 1; stroke: rgb(255, 0, 0);" y="120" transform="matrix(0.9999999999999999, 0, 0, 0.9999999999999999, 0, -2.842170943040401e-14)"/>
  <rect x="20" width="20" height="20" style="fill: rgb(255, 0, 0); stroke-miterlimit: 1; stroke: rgb(255, 0, 0);" y="120" transform="matrix(0.9999999999999999, 0, 0, 0.9999999999999999, 0, -2.842170943040401e-14)"/>
  <rect width="20" height="20" style="fill: rgb(255, 0, 0); stroke-miterlimit: 1; stroke: rgb(255, 0, 0);" x="40" y="120" transform="matrix(0.9999999999999999, 0, 0, 0.9999999999999999, 0, -2.842170943040401e-14)"/>
  <rect x="60" width="20" height="20" style="stroke-miterlimit: 1; stroke: rgb(0, 0, 0);" y="120" transform="matrix(0.9999999999999999, 0, 0, 0.9999999999999999, 0, -2.842170943040401e-14)"/>
  <rect width="20.1" height="20" style="fill: rgb(255, 0, 0); stroke-miterlimit: 1; stroke: rgb(255, 0, 0);" y="140" transform="matrix(0.9999999999999999, 0, 0, 0.9999999999999999, 0, -2.842170943040401e-14)"/>
  <rect x="20" width="20" height="20" style="stroke-miterlimit: 1; stroke: rgb(0, 0, 0);" y="140" transform="matrix(0.9999999999999999, 0, 0, 0.9999999999999999, 0, -2.842170943040401e-14)"/>
  <rect width="20" height="20" style="stroke-miterlimit: 1; stroke: rgb(0, 0, 0);" x="40" y="140" transform="matrix(0.9999999999999999, 0, 0, 0.9999999999999999, 0, -2.842170943040401e-14)"/>
  <rect x="60" width="20" height="20" style="stroke-miterlimit: 1; stroke: rgb(0, 0, 0);" y="140" transform="matrix(0.9999999999999999, 0, 0, 0.9999999999999999, 0, -2.842170943040401e-14)"/>
  <rect width="20" height="20" style="stroke-miterlimit: 1; stroke: rgb(0, 0, 0);" x="80" y="80" transform="matrix(0.9999999999999999, 0, 0, 0.9999999999999999, 0, -2.842170943040401e-14)"/>
  <rect x="100" width="20" height="20" style="stroke-miterlimit: 1; stroke: rgb(0, 0, 0);" y="80" transform="matrix(0.9999999999999999, 0, 0, 0.9999999999999999, 0, -2.842170943040401e-14)"/>
  <rect width="20" height="20" style="stroke-miterlimit: 1; stroke: rgb(0, 0, 0);" x="120" y="80" transform="matrix(0.9999999999999999, 0, 0, 0.9999999999999999, 0, -2.842170943040401e-14)"/>
  <rect x="140" width="20" height="20" style="stroke-miterlimit: 1; stroke: rgb(0, 0, 0);" y="80" transform="matrix(0.9999999999999999, 0, 0, 0.9999999999999999, 0, -2.842170943040401e-14)"/>
  <rect width="20" height="20" style="stroke-miterlimit: 1; stroke: rgb(0, 0, 0);" y="100" x="80" transform="matrix(0.9999999999999999, 0, 0, 0.9999999999999999, 0, -2.842170943040401e-14)"/>
  <rect x="100" width="20" height="20" style="fill-rule: nonzero; fill: rgb(255, 255, 255); paint-order: stroke; stroke-miterlimit: 1; stroke: rgb(255, 255, 255);" y="100" transform="matrix(0.9999999999999999, 0, 0, 0.9999999999999999, 0, -2.842170943040401e-14)"/>
  <rect width="20" height="20" style="fill-rule: nonzero; fill: rgb(255, 255, 255); paint-order: stroke; stroke-miterlimit: 1; stroke: rgb(255, 255, 255);" x="120" y="100" transform="matrix(0.9999999999999999, 0, 0, 0.9999999999999999, 0, -2.842170943040401e-14)"/>
  <rect x="140" width="20" height="20" style="stroke-miterlimit: 1; stroke: rgb(0, 0, 0);" y="100" transform="matrix(0.9999999999999999, 0, 0, 0.9999999999999999, 0, -2.842170943040401e-14)"/>
  <rect width="20" height="20" style="stroke-miterlimit: 1; stroke: rgb(0, 0, 0);" y="120" x="80" transform="matrix(0.9999999999999999, 0, 0, 0.9999999999999999, 0, -2.842170943040401e-14)"/>
  <rect x="100" width="20" height="20" style="fill-rule: nonzero; fill: rgb(255, 255, 255); paint-order: stroke; stroke-miterlimit: 1; stroke: rgb(255, 255, 255);" y="120" transform="matrix(0.9999999999999999, 0, 0, 0.9999999999999999, 0, -2.842170943040401e-14)"/>
  <rect width="20" height="20" style="fill-rule: nonzero; fill: rgb(255, 255, 255); paint-order: stroke; stroke-miterlimit: 1; stroke: rgb(255, 255, 255);" x="120" y="120" transform="matrix(0.9999999999999999, 0, 0, 0.9999999999999999, 0, -2.842170943040401e-14)"/>
  <rect x="140" width="20" height="20" style="stroke-miterlimit: 1; stroke: rgb(0, 0, 0);" y="120" transform="matrix(0.9999999999999999, 0, 0, 0.9999999999999999, 0, -2.842170943040401e-14)"/>
  <rect width="20" height="20" style="stroke-miterlimit: 1; stroke: rgb(0, 0, 0);" y="140" x="80" transform="matrix(0.9999999999999999, 0, 0, 0.9999999999999999, 0, -2.842170943040401e-14)"/>
  <rect x="100" width="20" height="20" style="stroke-miterlimit: 1; stroke: rgb(0, 0, 0);" y="140" transform="matrix(0.9999999999999999, 0, 0, 0.9999999999999999, 0, -2.842170943040401e-14)"/>
  <rect width="20" height="20" style="stroke-miterlimit: 1; stroke: rgb(0, 0, 0);" x="120" y="140" transform="matrix(0.9999999999999999, 0, 0, 0.9999999999999999, 0, -2.842170943040401e-14)"/>
  <rect x="140" width="20" height="20" style="stroke-miterlimit: 1; stroke: rgb(0, 0, 0);" y="140" transform="matrix(0.9999999999999999, 0, 0, 0.9999999999999999, 0, -2.842170943040401e-14)"/>
  <rect width="20" height="20" style="stroke-miterlimit: 1; stroke: rgb(0, 0, 0);" x="160" y="80" transform="matrix(0.9999999999999999, 0, 0, 0.9999999999999999, 0, -2.842170943040401e-14)"/>
  <rect x="180" width="20" height="20" style="stroke-miterlimit: 1; stroke: rgb(0, 0, 0);" y="80" transform="matrix(0.9999999999999999, 0, 0, 0.9999999999999999, 0, -2.842170943040401e-14)"/>
  <rect width="20" height="20" style="stroke-miterlimit: 1; stroke: rgb(0, 0, 0);" x="200" y="80" transform="matrix(0.9999999999999999, 0, 0, 0.9999999999999999, 0, -2.842170943040401e-14)"/>
  <rect x="220" width="20" height="20" style="fill: rgb(255, 0, 0); stroke-miterlimit: 1; stroke: rgb(255, 0, 0);" y="80" transform="matrix(0.9999999999999999, 0, 0, 0.9999999999999999, 0, -2.842170943040401e-14)"/>
  <rect width="20" height="20" style="stroke-miterlimit: 1; stroke: rgb(0, 0, 0);" y="100" x="160" transform="matrix(0.9999999999999999, 0, 0, 0.9999999999999999, 0, -2.842170943040401e-14)"/>
  <rect x="180" width="20" height="20" style="stroke-miterlimit: 1; stroke: rgb(0, 0, 0);" y="100" transform="matrix(0.9999999999999999, 0, 0, 0.9999999999999999, 0, -2.842170943040401e-14)"/>
  <rect width="20" height="20" style="stroke-miterlimit: 1; stroke: rgb(0, 0, 0);" x="200" y="100" transform="matrix(0.9999999999999999, 0, 0, 0.9999999999999999, 0, -2.842170943040401e-14)"/>
  <rect x="220" width="20" height="20" style="stroke-miterlimit: 1; stroke: rgb(0, 0, 0);" y="100" transform="matrix(0.9999999999999999, 0, 0, 0.9999999999999999, 0, -2.842170943040401e-14)"/>
  <rect width="20" height="20" style="stroke-miterlimit: 1; stroke: rgb(0, 0, 0);" y="120" x="160" transform="matrix(0.9999999999999999, 0, 0, 0.9999999999999999, 0, -2.842170943040401e-14)"/>
  <rect x="180" width="20" height="20" style="stroke-miterlimit: 1; stroke: rgb(0, 0, 0);" y="120" transform="matrix(0.9999999999999999, 0, 0, 0.9999999999999999, 0, -2.842170943040401e-14)"/>
  <rect width="20" height="20" style="stroke-miterlimit: 1; stroke: rgb(0, 0, 0);" x="200" y="120" transform="matrix(0.9999999999999999, 0, 0, 0.9999999999999999, 0, -2.842170943040401e-14)"/>
  <rect x="220" width="20" height="20" style="stroke-miterlimit: 1; stroke: rgb(0, 0, 0);" y="120" transform="matrix(0.9999999999999999, 0, 0, 0.9999999999999999, 0, -2.842170943040401e-14)"/>
  <rect width="20" height="20" style="stroke-miterlimit: 1; stroke: rgb(0, 0, 0);" y="140" x="160" transform="matrix(0.9999999999999999, 0, 0, 0.9999999999999999, 0, -2.842170943040401e-14)"/>
  <rect x="180" width="20" height="20" style="stroke-miterlimit: 1; stroke: rgb(0, 0, 0);" y="140" transform="matrix(0.9999999999999999, 0, 0, 0.9999999999999999, 0, -2.842170943040401e-14)"/>
  <rect width="20" height="20" style="stroke-miterlimit: 1; stroke: rgb(0, 0, 0);" x="200" y="140" transform="matrix(0.9999999999999999, 0, 0, 0.9999999999999999, 0, -2.842170943040401e-14)"/>
  <rect x="220" width="20" height="20" style="stroke-miterlimit: 1; stroke: rgb(0, 0, 0);" y="140" transform="matrix(0.9999999999999999, 0, 0, 0.9999999999999999, 0, -2.842170943040401e-14)"/>
  <rect width="20" height="20" style="fill: rgb(255, 0, 0); stroke-miterlimit: 1; stroke: rgb(255, 0, 0);" x="240" y="80" transform="matrix(0.9999999999999999, 0, 0, 0.9999999999999999, 0, -2.842170943040401e-14)"/>
  <rect x="260" width="20" height="20" style="fill: rgb(255, 0, 0); stroke-miterlimit: 1; stroke: rgb(255, 0, 0);" y="80" transform="matrix(0.9999999999999999, 0, 0, 0.9999999999999999, 0, -2.842170943040401e-14)"/>
  <rect width="20.2" height="20" style="fill: rgb(255, 0, 0); stroke-miterlimit: 1; stroke: rgb(255, 0, 0);" x="280" y="80" transform="matrix(0.9999999999999999, 0, 0, 0.9999999999999999, 0, -2.842170943040401e-14)"/>
  <rect width="20" height="20" style="fill: rgb(255, 0, 0); stroke-miterlimit: 1; stroke: rgb(255, 0, 0);" y="100" x="240" transform="matrix(0.9999999999999999, 0, 0, 0.9999999999999999, 0, -2.842170943040401e-14)"/>
  <rect x="260" width="20" height="20" style="fill: rgb(255, 0, 0); stroke-miterlimit: 1; stroke: rgb(255, 0, 0);" y="100" transform="matrix(0.9999999999999999, 0, 0, 0.9999999999999999, 0, -2.842170943040401e-14)"/>
  <rect width="20.2" height="20" style="fill: rgb(255, 0, 0); stroke-miterlimit: 1; stroke: rgb(255, 0, 0);" x="280" y="100" transform="matrix(0.9999999999999999, 0, 0, 0.9999999999999999, 0, -2.842170943040401e-14)"/>
  <rect width="20" height="20" style="fill: rgb(255, 0, 0); stroke-miterlimit: 1; stroke: rgb(255, 0, 0);" y="120" x="240" transform="matrix(0.9999999999999999, 0, 0, 0.9999999999999999, 0, -2.842170943040401e-14)"/>
  <rect x="260" width="20" height="20" style="fill: rgb(255, 0, 0); stroke-miterlimit: 1; stroke: rgb(255, 0, 0);" y="120" transform="matrix(0.9999999999999999, 0, 0, 0.9999999999999999, 0, -2.842170943040401e-14)"/>
  <rect width="20.2" height="20" style="fill: rgb(255, 0, 0); stroke-miterlimit: 1; stroke: rgb(255, 0, 0);" x="280" y="120" transform="matrix(0.9999999999999999, 0, 0, 0.9999999999999999, 0, -2.842170943040401e-14)"/>
  <rect width="20" height="20" style="stroke-miterlimit: 1; stroke: rgb(0, 0, 0);" y="140" x="240" transform="matrix(0.9999999999999999, 0, 0, 0.9999999999999999, 0, -2.842170943040401e-14)"/>
  <rect x="260" width="20" height="20" style="stroke-miterlimit: 1; stroke: rgb(0, 0, 0);" y="140" transform="matrix(0.9999999999999999, 0, 0, 0.9999999999999999, 0, -2.842170943040401e-14)"/>
  <rect width="20.2" height="20" style="fill: rgb(255, 0, 0); stroke-miterlimit: 1; stroke: rgb(255, 0, 0);" x="280" y="140" transform="matrix(0.9999999999999999, 0, 0, 0.9999999999999999, 0, -2.842170943040401e-14)"/>
  <rect width="20.1" height="20" style="fill: rgb(255, 0, 0); stroke-miterlimit: 1; stroke: rgb(255, 0, 0);" y="160" transform="matrix(0.9999999999999999, 0, 0, 0.9999999999999999, 0, -2.842170943040401e-14)"/>
  <rect x="20" width="20" height="20" style="fill: rgb(255, 0, 0); stroke-miterlimit: 1; stroke: rgb(255, 0, 0);" y="160" transform="matrix(0.9999999999999999, 0, 0, 0.9999999999999999, 0, -2.842170943040401e-14)"/>
  <rect width="20" height="20" style="fill: rgb(255, 0, 0); stroke-miterlimit: 1; stroke: rgb(255, 0, 0);" x="40" y="160" transform="matrix(0.9999999999999999, 0, 0, 0.9999999999999999, 0, -2.842170943040401e-14)"/>
  <rect x="60" width="20" height="20" style="stroke-miterlimit: 1; stroke: rgb(0, 0, 0);" y="160" transform="matrix(0.9999999999999999, 0, 0, 0.9999999999999999, 0, -2.842170943040401e-14)"/>
  <rect width="20.1" height="20" style="fill: rgb(255, 0, 0); stroke-miterlimit: 1; stroke: rgb(255, 0, 0);" y="180" transform="matrix(0.9999999999999999, 0, 0, 0.9999999999999999, 0, -2.842170943040401e-14)"/>
  <rect x="20" width="20" height="20" style="fill: rgb(255, 0, 0); stroke-miterlimit: 1; stroke: rgb(255, 0, 0);" y="180" transform="matrix(0.9999999999999999, 0, 0, 0.9999999999999999, 0, -2.842170943040401e-14)"/>
  <rect width="20" height="20" style="fill: rgb(255, 0, 0); stroke-miterlimit: 1; stroke: rgb(255, 0, 0);" x="40" y="180" transform="matrix(0.9999999999999999, 0, 0, 0.9999999999999999, 0, -2.842170943040401e-14)"/>
  <rect x="60" width="20" height="20" style="stroke-miterlimit: 1; stroke: rgb(0, 0, 0);" y="180" transform="matrix(0.9999999999999999, 0, 0, 0.9999999999999999, 0, -2.842170943040401e-14)"/>
  <rect width="20.1" height="20" style="fill: rgb(255, 0, 0); stroke-miterlimit: 1; stroke: rgb(255, 0, 0);" y="200" transform="matrix(0.9999999999999999, 0, 0, 0.9999999999999999, 0, -2.842170943040401e-14)"/>
  <rect x="20" width="20" height="20" style="fill: rgb(255, 0, 0); stroke-miterlimit: 1; stroke: rgb(255, 0, 0);" y="200" transform="matrix(0.9999999999999999, 0, 0, 0.9999999999999999, 0, -2.842170943040401e-14)"/>
  <rect width="20" height="20" style="fill: rgb(255, 0, 0); stroke-miterlimit: 1; stroke: rgb(255, 0, 0);" x="40" y="200" transform="matrix(0.9999999999999999, 0, 0, 0.9999999999999999, 0, -2.842170943040401e-14)"/>
  <rect x="60" width="20" height="20" style="fill: rgb(255, 0, 0); stroke-miterlimit: 1; stroke: rgb(255, 0, 0);" y="200" transform="matrix(0.9999999999999999, 0, 0, 0.9999999999999999, 0, -2.842170943040401e-14)"/>
  <rect width="20.1" height="20" style="fill: rgb(255, 0, 0); stroke-miterlimit: 1; stroke: rgb(255, 0, 0);" y="220" transform="matrix(0.9999999999999999, 0, 0, 0.9999999999999999, 0, -2.842170943040401e-14)"/>
  <rect x="20" width="20" height="20" style="fill: rgb(255, 0, 0); stroke-miterlimit: 1; stroke: rgb(255, 0, 0);" y="220" transform="matrix(0.9999999999999999, 0, 0, 0.9999999999999999, 0, -2.842170943040401e-14)"/>
  <rect width="20" height="20" style="fill: rgb(255, 0, 0); stroke-miterlimit: 1; stroke: rgb(255, 0, 0);" x="40" y="220" transform="matrix(0.9999999999999999, 0, 0, 0.9999999999999999, 0, -2.842170943040401e-14)"/>
  <rect x="60" width="20" height="20" style="stroke-miterlimit: 1; stroke: rgb(0, 0, 0);" y="220" transform="matrix(0.9999999999999999, 0, 0, 0.9999999999999999, 0, -2.842170943040401e-14)"/>
  <rect width="20" height="20" style="stroke-miterlimit: 1; stroke: rgb(0, 0, 0);" x="80" y="160" transform="matrix(0.9999999999999999, 0, 0, 0.9999999999999999, 0, -2.842170943040401e-14)"/>
  <rect x="100" width="20" height="20" style="stroke-miterlimit: 1; stroke: rgb(0, 0, 0);" y="160" transform="matrix(0.9999999999999999, 0, 0, 0.9999999999999999, 0, -2.842170943040401e-14)"/>
  <rect width="20" height="20" style="stroke-miterlimit: 1; stroke: rgb(0, 0, 0);" x="120" y="160" transform="matrix(0.9999999999999999, 0, 0, 0.9999999999999999, 0, -2.842170943040401e-14)"/>
  <rect x="140" width="20" height="20" style="stroke-miterlimit: 1; stroke: rgb(0, 0, 0);" y="160" transform="matrix(0.9999999999999999, 0, 0, 0.9999999999999999, 0, -2.842170943040401e-14)"/>
  <rect width="20" height="20" style="stroke-miterlimit: 1; stroke: rgb(0, 0, 0);" y="180" x="80" transform="matrix(0.9999999999999999, 0, 0, 0.9999999999999999, 0, -2.842170943040401e-14)"/>
  <rect x="100" width="20" height="20" style="stroke-miterlimit: 1; stroke: rgb(0, 0, 0);" y="180" transform="matrix(0.9999999999999999, 0, 0, 0.9999999999999999, 0, -2.842170943040401e-14)"/>
  <rect width="20" height="20" style="stroke-miterlimit: 1; stroke: rgb(0, 0, 0);" x="120" y="180" transform="matrix(0.9999999999999999, 0, 0, 0.9999999999999999, 0, -2.842170943040401e-14)"/>
  <rect x="140" width="20" height="20" style="stroke-miterlimit: 1; stroke: rgb(0, 0, 0);" y="180" transform="matrix(0.9999999999999999, 0, 0, 0.9999999999999999, 0, -2.842170943040401e-14)"/>
  <rect width="20" height="20" style="stroke-miterlimit: 1; stroke: rgb(0, 0, 0);" y="200" x="80" transform="matrix(0.9999999999999999, 0, 0, 0.9999999999999999, 0, -2.842170943040401e-14)"/>
  <rect x="100" width="20" height="20" style="stroke-miterlimit: 1; stroke: rgb(0, 0, 0);" y="200" transform="matrix(0.9999999999999999, 0, 0, 0.9999999999999999, 0, -2.842170943040401e-14)"/>
  <rect width="20" height="20" style="stroke-miterlimit: 1; stroke: rgb(0, 0, 0);" x="120" y="200" transform="matrix(0.9999999999999999, 0, 0, 0.9999999999999999, 0, -2.842170943040401e-14)"/>
  <rect x="140" width="20" height="20" style="stroke-miterlimit: 1; stroke: rgb(0, 0, 0);" y="200" transform="matrix(0.9999999999999999, 0, 0, 0.9999999999999999, 0, -2.842170943040401e-14)"/>
  <rect width="20" height="20" style="fill: rgb(255, 0, 0); stroke-miterlimit: 1; stroke: rgb(0, 0, 0);" y="220" x="80" transform="matrix(0.9999999999999999, 0, 0, 0.9999999999999999, 0, -2.842170943040401e-14)"/>
  <rect x="100" width="20" height="20" style="stroke-miterlimit: 1; stroke: rgb(0, 0, 0);" y="220" transform="matrix(0.9999999999999999, 0, 0, 0.9999999999999999, 0, -2.842170943040401e-14)"/>
  <rect width="20" height="20" style="stroke-miterlimit: 1; stroke: rgb(0, 0, 0);" x="120" y="220" transform="matrix(0.9999999999999999, 0, 0, 0.9999999999999999, 0, -2.842170943040401e-14)"/>
  <rect x="140" width="20" height="20" style="stroke-miterlimit: 1; stroke: rgb(0, 0, 0);" y="220" transform="matrix(0.9999999999999999, 0, 0, 0.9999999999999999, 0, -2.842170943040401e-14)"/>
  <rect width="20" height="20" style="stroke-miterlimit: 1; stroke: rgb(0, 0, 0);" x="160" y="160" transform="matrix(0.9999999999999999, 0, 0, 0.9999999999999999, 0, -2.842170943040401e-14)"/>
  <rect x="180" width="20" height="20" style="stroke-miterlimit: 1; stroke: rgb(0, 0, 0);" y="160" transform="matrix(0.9999999999999999, 0, 0, 0.9999999999999999, 0, -2.842170943040401e-14)"/>
  <rect width="20" height="20" style="stroke-miterlimit: 1; stroke: rgb(0, 0, 0);" x="200" y="160" transform="matrix(0.9999999999999999, 0, 0, 0.9999999999999999, 0, -2.842170943040401e-14)"/>
  <rect x="220" width="20" height="20" style="stroke-miterlimit: 1; stroke: rgb(0, 0, 0);" y="160" transform="matrix(0.9999999999999999, 0, 0, 0.9999999999999999, 0, -2.842170943040401e-14)"/>
  <rect width="20" height="20" style="stroke-miterlimit: 1; stroke: rgb(0, 0, 0);" y="180" x="160" transform="matrix(0.9999999999999999, 0, 0, 0.9999999999999999, 0, -2.842170943040401e-14)"/>
  <rect x="180" width="20" height="20" style="stroke-miterlimit: 1; stroke: rgb(0, 0, 0);" y="180" transform="matrix(0.9999999999999999, 0, 0, 0.9999999999999999, 0, -2.842170943040401e-14)"/>
  <rect width="20" height="20" style="stroke-miterlimit: 1; stroke: rgb(0, 0, 0);" x="200" y="180" transform="matrix(0.9999999999999999, 0, 0, 0.9999999999999999, 0, -2.842170943040401e-14)"/>
  <rect x="220" width="20" height="20" style="stroke-miterlimit: 1; stroke: rgb(0, 0, 0);" y="180" transform="matrix(0.9999999999999999, 0, 0, 0.9999999999999999, 0, -2.842170943040401e-14)"/>
  <rect width="20" height="20" style="stroke-miterlimit: 1; stroke: rgb(0, 0, 0);" y="200" x="160" transform="matrix(0.9999999999999999, 0, 0, 0.9999999999999999, 0, -2.842170943040401e-14)"/>
  <rect x="180" width="20" height="20" style="stroke-miterlimit: 1; stroke: rgb(0, 0, 0);" y="200" transform="matrix(0.9999999999999999, 0, 0, 0.9999999999999999, 0, -2.842170943040401e-14)"/>
  <rect width="20" height="20" style="stroke-miterlimit: 1; stroke: rgb(0, 0, 0);" x="200" y="200" transform="matrix(0.9999999999999999, 0, 0, 0.9999999999999999, 0, -2.842170943040401e-14)"/>
  <rect x="220" width="20" height="20" style="fill: rgb(255, 0, 0); stroke-miterlimit: 1; stroke: rgb(255, 0, 0);" y="200" transform="matrix(0.9999999999999999, 0, 0, 0.9999999999999999, 0, -2.842170943040401e-14)"/>
  <rect width="20" height="20" style="stroke-miterlimit: 1; stroke: rgb(0, 0, 0);" y="220" x="160" transform="matrix(0.9999999999999999, 0, 0, 0.9999999999999999, 0, -2.842170943040401e-14)"/>
  <rect x="180" width="20" height="20" style="stroke-miterlimit: 1; stroke: rgb(0, 0, 0);" y="220" transform="matrix(0.9999999999999999, 0, 0, 0.9999999999999999, 0, -2.842170943040401e-14)"/>
  <rect width="20" height="20" style="fill: rgb(255, 0, 0); stroke-miterlimit: 1; stroke: rgb(0, 0, 0);" x="200" y="220" transform="matrix(0.9999999999999999, 0, 0, 0.9999999999999999, 0, -2.842170943040401e-14)"/>
  <rect x="220" width="20" height="20" style="stroke-miterlimit: 1; stroke: rgb(0, 0, 0);" y="220" transform="matrix(0.9999999999999999, 0, 0, 0.9999999999999999, 0, -2.842170943040401e-14)"/>
  <rect width="20" height="20" style="fill: rgb(255, 0, 0); stroke-miterlimit: 1; stroke: rgb(255, 0, 0);" x="240" y="160" transform="matrix(0.9999999999999999, 0, 0, 0.9999999999999999, 0, -2.842170943040401e-14)"/>
  <rect x="260" width="20" height="20" style="fill: rgb(255, 0, 0); stroke-miterlimit: 1; stroke: rgb(255, 0, 0);" y="160" transform="matrix(0.9999999999999999, 0, 0, 0.9999999999999999, 0, -2.842170943040401e-14)"/>
  <rect width="20.2" height="20" style="fill: rgb(255, 0, 0); stroke-miterlimit: 1; stroke: rgb(255, 0, 0);" x="280" y="160" transform="matrix(0.9999999999999999, 0, 0, 0.9999999999999999, 0, -2.842170943040401e-14)"/>
  <rect width="20" height="20" style="fill: rgb(255, 0, 0); stroke-miterlimit: 1; stroke: rgb(255, 0, 0);" y="180" x="240" transform="matrix(0.9999999999999999, 0, 0, 0.9999999999999999, 0, -2.842170943040401e-14)"/>
  <rect x="260" width="20" height="20" style="fill: rgb(255, 0, 0); stroke-miterlimit: 1; stroke: rgb(255, 0, 0);" y="180" transform="matrix(0.9999999999999999, 0, 0, 0.9999999999999999, 0, -2.842170943040401e-14)"/>
  <rect width="20.2" height="20" style="fill: rgb(255, 0, 0); stroke-miterlimit: 1; stroke: rgb(255, 0, 0);" x="280" y="180" transform="matrix(0.9999999999999999, 0, 0, 0.9999999999999999, 0, -2.842170943040401e-14)"/>
  <rect width="20" height="20" style="fill: rgb(255, 0, 0); stroke-miterlimit: 1; stroke: rgb(255, 0, 0);" y="200" x="240" transform="matrix(0.9999999999999999, 0, 0, 0.9999999999999999, 0, -2.842170943040401e-14)"/>
  <rect x="260" width="20" height="20" style="fill: rgb(255, 0, 0); stroke-miterlimit: 1; stroke: rgb(255, 0, 0);" y="200" transform="matrix(0.9999999999999999, 0, 0, 0.9999999999999999, 0, -2.842170943040401e-14)"/>
  <rect width="20.2" height="20" style="fill: rgb(255, 0, 0); stroke-miterlimit: 1; stroke: rgb(255, 0, 0);" x="280" y="200" transform="matrix(0.9999999999999999, 0, 0, 0.9999999999999999, 0, -2.842170943040401e-14)"/>
  <rect width="20" height="20" style="fill: rgb(255, 0, 0); stroke-miterlimit: 1; stroke: rgb(255, 0, 0);" y="220" x="240" transform="matrix(0.9999999999999999, 0, 0, 0.9999999999999999, 0, -2.842170943040401e-14)"/>
  <rect x="260" width="20" height="20" style="fill: rgb(255, 0, 0); stroke-miterlimit: 1; stroke: rgb(255, 0, 0);" y="220" transform="matrix(0.9999999999999999, 0, 0, 0.9999999999999999, 0, -2.842170943040401e-14)"/>
  <rect width="20.2" height="20" style="fill: rgb(255, 0, 0); stroke-miterlimit: 1; stroke: rgb(255, 0, 0);" x="280" y="220" transform="matrix(0.9999999999999999, 0, 0, 0.9999999999999999, 0, -2.842170943040401e-14)"/>
  <rect width="20.1" height="20" style="fill: rgb(255, 0, 0); stroke-miterlimit: 1; stroke: rgb(255, 0, 0);" y="240" transform="matrix(0.9999999999999999, 0, 0, 0.9999999999999999, 0, -2.842170943040401e-14)"/>
  <rect x="20" width="20" height="20" style="fill: rgb(255, 0, 0); stroke-miterlimit: 1; stroke: rgb(255, 0, 0);" y="240" transform="matrix(0.9999999999999999, 0, 0, 0.9999999999999999, 0, -2.842170943040401e-14)"/>
  <rect width="20" height="20" style="fill: rgb(255, 0, 0); stroke-miterlimit: 1; stroke: rgb(255, 0, 0);" x="40" y="240" transform="matrix(0.9999999999999999, 0, 0, 0.9999999999999999, 0, -2.842170943040401e-14)"/>
  <rect x="60" width="20" height="20" style="fill: rgb(255, 0, 0); stroke-miterlimit: 1; stroke: rgb(255, 0, 0);" y="240" transform="matrix(0.9999999999999999, 0, 0, 0.9999999999999999, 0, -2.842170943040401e-14)"/>
  <rect width="20.1" height="20" style="fill: rgb(255, 0, 0); stroke-miterlimit: 1; stroke: rgb(255, 0, 0);" y="260" transform="matrix(0.9999999999999999, 0, 0, 0.9999999999999999, 0, -2.842170943040401e-14)"/>
  <rect x="20" width="20" height="20" style="fill: rgb(255, 0, 0); stroke-miterlimit: 1; stroke: rgb(255, 0, 0);" y="260" transform="matrix(0.9999999999999999, 0, 0, 0.9999999999999999, 0, -2.842170943040401e-14)"/>
  <rect width="20" height="20" style="fill: rgb(255, 0, 0); stroke-miterlimit: 1; stroke: rgb(255, 0, 0);" x="40" y="260" transform="matrix(0.9999999999999999, 0, 0, 0.9999999999999999, 0, -2.842170943040401e-14)"/>
  <rect x="60" width="20" height="20" style="fill: rgb(255, 0, 0); stroke-miterlimit: 1; stroke: rgb(255, 0, 0);" y="260" transform="matrix(0.9999999999999999, 0, 0, 0.9999999999999999, 0, -2.842170943040401e-14)"/>
  <rect width="20.1" height="20" style="fill: rgb(255, 0, 0); stroke-miterlimit: 1; stroke: rgb(255, 0, 0);" y="280" transform="matrix(0.9999999999999999, 0, 0, 0.9999999999999999, 0, -2.842170943040401e-14)"/>
  <rect x="20" width="20" height="20" style="fill: rgb(255, 0, 0); stroke-miterlimit: 1; stroke: rgb(255, 0, 0);" y="280" transform="matrix(0.9999999999999999, 0, 0, 0.9999999999999999, 0, -2.842170943040401e-14)"/>
  <rect width="20" height="20" style="fill: rgb(255, 0, 0); stroke-miterlimit: 1; stroke: rgb(255, 0, 0);" x="40" y="280" transform="matrix(0.9999999999999999, 0, 0, 0.9999999999999999, 0, -2.842170943040401e-14)"/>
  <rect x="60" width="20" height="20" style="fill: rgb(255, 0, 0); stroke-miterlimit: 1; stroke: rgb(255, 0, 0);" y="280" transform="matrix(0.9999999999999999, 0, 0, 0.9999999999999999, 0, -2.842170943040401e-14)"/>
  <rect width="20" height="20" style="fill: rgb(255, 0, 0); stroke-miterlimit: 1; stroke: rgb(255, 0, 0);" x="80" y="240" transform="matrix(0.9999999999999999, 0, 0, 0.9999999999999999, 0, -2.842170943040401e-14)"/>
  <rect x="100" width="20" height="20" style="fill: rgb(255, 0, 0); stroke-miterlimit: 1; stroke: rgb(255, 0, 0);" y="240" transform="matrix(0.9999999999999999, 0, 0, 0.9999999999999999, 0, -2.842170943040401e-14)"/>
  <rect width="20" height="20" style="fill: rgb(255, 0, 0); stroke-miterlimit: 1; stroke: rgb(255, 0, 0);" x="120" y="240" transform="matrix(0.9999999999999999, 0, 0, 0.9999999999999999, 0, -2.842170943040401e-14)"/>
  <rect x="140" width="20" height="20" style="stroke-miterlimit: 1; stroke: rgb(0, 0, 0);" y="240" transform="matrix(0.9999999999999999, 0, 0, 0.9999999999999999, 0, -2.842170943040401e-14)"/>
  <rect width="20" height="20" style="fill: rgb(255, 0, 0); stroke-miterlimit: 1; stroke: rgb(255, 0, 0);" y="260" x="80" transform="matrix(0.9999999999999999, 0, 0, 0.9999999999999999, 0, -2.842170943040401e-14)"/>
  <rect x="100" width="20" height="20" style="fill: rgb(255, 0, 0); stroke-miterlimit: 1; stroke: rgb(255, 0, 0);" y="260" transform="matrix(0.9999999999999999, 0, 0, 0.9999999999999999, 0, -2.842170943040401e-14)"/>
  <rect width="20" height="20" style="fill: rgb(255, 0, 0); stroke-miterlimit: 1; stroke: rgb(255, 0, 0);" x="120" y="260" transform="matrix(0.9999999999999999, 0, 0, 0.9999999999999999, 0, -2.842170943040401e-14)"/>
  <rect x="140" width="20" height="20" style="stroke-miterlimit: 1; stroke: rgb(0, 0, 0);" y="260" transform="matrix(0.9999999999999999, 0, 0, 0.9999999999999999, 0, -2.842170943040401e-14)"/>
  <rect width="20" height="20" style="fill: rgb(255, 0, 0); stroke-miterlimit: 1; stroke: rgb(255, 0, 0);" y="280" x="80" transform="matrix(0.9999999999999999, 0, 0, 0.9999999999999999, 0, -2.842170943040401e-14)"/>
  <rect x="100" width="20" height="20" style="fill: rgb(255, 0, 0); stroke-miterlimit: 1; stroke: rgb(255, 0, 0);" y="280" transform="matrix(0.9999999999999999, 0, 0, 0.9999999999999999, 0, -2.842170943040401e-14)"/>
  <rect width="20" height="20" style="fill: rgb(255, 0, 0); stroke-miterlimit: 1; stroke: rgb(255, 0, 0);" x="120" y="280" transform="matrix(0.9999999999999999, 0, 0, 0.9999999999999999, 0, -2.842170943040401e-14)"/>
  <rect x="140" width="20" height="20" style="fill: rgb(255, 0, 0); stroke-miterlimit: 1; stroke: rgb(255, 0, 0);" y="280" transform="matrix(0.9999999999999999, 0, 0, 0.9999999999999999, 0, -2.842170943040401e-14)"/>
  <rect width="20" height="20" style="fill: rgb(255, 0, 0); stroke-miterlimit: 1; stroke: rgb(255, 0, 0);" x="160" y="240" transform="matrix(0.9999999999999999, 0, 0, 0.9999999999999999, 0, -2.842170943040401e-14)"/>
  <rect x="180" width="20" height="20" style="fill: rgb(255, 0, 0); stroke-miterlimit: 1; stroke: rgb(255, 0, 0);" y="240" transform="matrix(0.9999999999999999, 0, 0, 0.9999999999999999, 0, -2.842170943040401e-14)"/>
  <rect width="20" height="20" style="fill: rgb(255, 0, 0); stroke-miterlimit: 1; stroke: rgb(255, 0, 0);" x="200" y="240" transform="matrix(0.9999999999999999, 0, 0, 0.9999999999999999, 0, -2.842170943040401e-14)"/>
  <rect x="220" width="20" height="20" style="fill: rgb(255, 0, 0); stroke-miterlimit: 1; stroke: rgb(255, 0, 0);" y="240" transform="matrix(0.9999999999999999, 0, 0, 0.9999999999999999, 0, -2.842170943040401e-14)"/>
  <rect width="20" height="20" style="fill: rgb(255, 0, 0); stroke-miterlimit: 1; stroke: rgb(255, 0, 0);" y="260" x="160" transform="matrix(0.9999999999999999, 0, 0, 0.9999999999999999, 0, -2.842170943040401e-14)"/>
  <rect x="180" width="20" height="20" style="fill: rgb(255, 0, 0); stroke-miterlimit: 1; stroke: rgb(255, 0, 0);" y="260" transform="matrix(0.9999999999999999, 0, 0, 0.9999999999999999, 0, -2.842170943040401e-14)"/>
  <rect width="20" height="20" style="fill: rgb(255, 0, 0); stroke-miterlimit: 1; stroke: rgb(255, 0, 0);" x="200" y="260" transform="matrix(0.9999999999999999, 0, 0, 0.9999999999999999, 0, -2.842170943040401e-14)"/>
  <rect x="220" width="20" height="20" style="fill: rgb(255, 0, 0); stroke-miterlimit: 1; stroke: rgb(255, 0, 0);" y="260" transform="matrix(0.9999999999999999, 0, 0, 0.9999999999999999, 0, -2.842170943040401e-14)"/>
  <rect width="20" height="20" style="fill: rgb(255, 0, 0); stroke-miterlimit: 1; stroke: rgb(255, 0, 0);" y="280" x="160" transform="matrix(0.9999999999999999, 0, 0, 0.9999999999999999, 0, -2.842170943040401e-14)"/>
  <rect x="180" width="20" height="20" style="fill: rgb(255, 0, 0); stroke-miterlimit: 1; stroke: rgb(255, 0, 0);" y="280" transform="matrix(0.9999999999999999, 0, 0, 0.9999999999999999, 0, -2.842170943040401e-14)"/>
  <rect width="20" height="20" style="fill: rgb(255, 0, 0); stroke-miterlimit: 1; stroke: rgb(255, 0, 0);" x="200" y="280" transform="matrix(0.9999999999999999, 0, 0, 0.9999999999999999, 0, -2.842170943040401e-14)"/>
  <rect x="220" width="20" height="20" style="fill: rgb(255, 0, 0); stroke-miterlimit: 1; stroke: rgb(255, 0, 0);" y="280" transform="matrix(0.9999999999999999, 0, 0, 0.9999999999999999, 0, -2.842170943040401e-14)"/>
  <rect width="20" height="20" style="fill: rgb(255, 0, 0); stroke-miterlimit: 1; stroke: rgb(255, 0, 0);" x="240" y="240" transform="matrix(0.9999999999999999, 0, 0, 0.9999999999999999, 0, -2.842170943040401e-14)"/>
  <rect x="260" width="20" height="20" style="fill: rgb(255, 0, 0); stroke-miterlimit: 1; stroke: rgb(255, 0, 0);" y="240" transform="matrix(0.9999999999999999, 0, 0, 0.9999999999999999, 0, -2.842170943040401e-14)"/>
  <rect width="20.2" height="20" style="fill: rgb(255, 0, 0); stroke-miterlimit: 1; stroke: rgb(255, 0, 0);" x="280" y="240" transform="matrix(0.9999999999999999, 0, 0, 0.9999999999999999, 0, -2.842170943040401e-14)"/>
  <rect width="20" height="20" style="fill: rgb(255, 0, 0); stroke-miterlimit: 1; stroke: rgb(255, 0, 0);" y="260" x="240" transform="matrix(0.9999999999999999, 0, 0, 0.9999999999999999, 0, -2.842170943040401e-14)"/>
  <rect x="260" width="20" height="20" style="fill: rgb(255, 0, 0); stroke-miterlimit: 1; stroke: rgb(255, 0, 0);" y="260" transform="matrix(0.9999999999999999, 0, 0, 0.9999999999999999, 0, -2.842170943040401e-14)"/>
  <rect width="20.2" height="20" style="fill: rgb(255, 0, 0); stroke-miterlimit: 1; stroke: rgb(255, 0, 0);" x="280" y="260" transform="matrix(0.9999999999999999, 0, 0, 0.9999999999999999, 0, -2.842170943040401e-14)"/>
  <rect width="20" height="20" style="fill: rgb(255, 0, 0); stroke-miterlimit: 1; stroke: rgb(255, 0, 0);" y="280" x="240" transform="matrix(0.9999999999999999, 0, 0, 0.9999999999999999, 0, -2.842170943040401e-14)"/>
  <rect x="260" width="20" height="20" style="fill: rgb(255, 0, 0); stroke-miterlimit: 1; stroke: rgb(255, 0, 0);" y="280" transform="matrix(0.9999999999999999, 0, 0, 0.9999999999999999, 0, -2.842170943040401e-14)"/>
  <rect width="20.2" height="20" style="fill: rgb(255, 0, 0); stroke-miterlimit: 1; stroke: rgb(255, 0, 0);" x="280" y="280" transform="matrix(0.9999999999999999, 0, 0, 0.9999999999999999, 0, -2.842170943040401e-14)"/>
</svg>